<mxfile host="app.diagrams.net" modified="2024-05-24T12:21:43.210Z" agent="Mozilla/5.0 (X11; Linux x86_64; rv:102.0) Gecko/20100101 Firefox/102.0" etag="vMnXUjMlwrKfW1tMEHOJ" version="24.4.7" type="github">
  <diagram name="Page-1" id="CO8yeSKtxnCOvxcArI1l">
    <mxGraphModel dx="794" dy="702" grid="1" gridSize="10" guides="1" tooltips="1" connect="1" arrows="1" fold="1" page="1" pageScale="1" pageWidth="850" pageHeight="1100" math="0" shadow="0">
      <root>
        <mxCell id="0" />
        <mxCell id="1" parent="0" />
        <mxCell id="7seAyAgcbINuPAuelUQ2-5" value="" style="edgeStyle=orthogonalEdgeStyle;rounded=0;orthogonalLoop=1;jettySize=auto;html=1;" edge="1" parent="1" source="7seAyAgcbINuPAuelUQ2-1" target="7seAyAgcbINuPAuelUQ2-4">
          <mxGeometry relative="1" as="geometry" />
        </mxCell>
        <mxCell id="7seAyAgcbINuPAuelUQ2-11" value="" style="edgeStyle=orthogonalEdgeStyle;rounded=0;orthogonalLoop=1;jettySize=auto;html=1;" edge="1" parent="1" source="7seAyAgcbINuPAuelUQ2-1" target="7seAyAgcbINuPAuelUQ2-10">
          <mxGeometry relative="1" as="geometry" />
        </mxCell>
        <mxCell id="7seAyAgcbINuPAuelUQ2-13" value="" style="edgeStyle=orthogonalEdgeStyle;rounded=0;orthogonalLoop=1;jettySize=auto;html=1;" edge="1" parent="1" source="7seAyAgcbINuPAuelUQ2-1" target="7seAyAgcbINuPAuelUQ2-12">
          <mxGeometry relative="1" as="geometry" />
        </mxCell>
        <mxCell id="7seAyAgcbINuPAuelUQ2-1" value="Projet SAE2.05" style="rounded=0;whiteSpace=wrap;html=1;" vertex="1" parent="1">
          <mxGeometry x="365" y="180" width="120" height="60" as="geometry" />
        </mxCell>
        <mxCell id="7seAyAgcbINuPAuelUQ2-4" value="&lt;div&gt;Lot 1&lt;/div&gt;&lt;div&gt;Diagramme de classes UML&lt;br&gt;&lt;/div&gt;" style="whiteSpace=wrap;html=1;rounded=0;" vertex="1" parent="1">
          <mxGeometry x="150" y="360" width="120" height="60" as="geometry" />
        </mxCell>
        <mxCell id="7seAyAgcbINuPAuelUQ2-10" value="&lt;div&gt;Lot 3&lt;/div&gt;&lt;div&gt;Traduction Java et IHM&lt;br&gt;&lt;/div&gt;" style="whiteSpace=wrap;html=1;rounded=0;" vertex="1" parent="1">
          <mxGeometry x="580" y="360" width="120" height="60" as="geometry" />
        </mxCell>
        <mxCell id="7seAyAgcbINuPAuelUQ2-12" value="&lt;div&gt;Lot 2&lt;/div&gt;&lt;div&gt;Diagramme d&#39;activitÃ©&lt;br&gt;&lt;/div&gt;" style="whiteSpace=wrap;html=1;rounded=0;" vertex="1" parent="1">
          <mxGeometry x="365" y="360" width="120" height="60" as="geometry" />
        </mxCell>
      </root>
    </mxGraphModel>
  </diagram>
</mxfile>
